<?xml version="1.0" encoding="UTF-8" standalone="no"?>
<!DOCTYPE svg PUBLIC "-//W3C//DTD SVG 1.1//EN" "http://www.w3.org/Graphics/SVG/1.1/DTD/svg11.dtd">
<svg width="100%" height="100%" viewBox="0 0 1024 1024" version="1.1" xmlns="http://www.w3.org/2000/svg" xmlns:xlink="http://www.w3.org/1999/xlink" xml:space="preserve" xmlns:serif="http://www.serif.com/" style="fill-rule:evenodd;clip-rule:evenodd;stroke-linejoin:round;stroke-miterlimit:2;">
    <path d="M392.9,330.086L458.77,444.654L736.002,321.69C745.294,317.568 756.199,321.072 761.351,329.834L810.176,412.864L538.312,528.063C523.968,532.156 508.758,526.094 500.955,513.382L458.77,444.654L452.364,434.217C444.587,421.545 429.436,415.501 415.202,419.798L144.037,542.391L99.689,464.883C93.805,454.6 98.099,441.485 108.925,436.674L236.304,380.061L367.439,321.779C376.801,317.618 387.794,321.205 392.9,330.086Z" style="fill:white;fill-rule:nonzero;fill:rgb(0,0,0);"/>
    <path d="M503.944,499.786L571.652,621.282L865.19,491.084L911.499,569.835C917.623,580.249 913.186,593.674 902.062,598.388L651.193,704.691C636.849,708.783 621.639,702.722 613.836,690.009L571.652,621.282L565.246,610.845C557.468,598.173 542.318,592.129 528.084,596.426L273.487,711.528C264.092,715.775 253.009,712.185 247.888,703.236L201.575,622.294L497.636,497.612C499.985,496.623 502.703,497.56 503.944,499.786Z" style="fill:white;fill-rule:nonzero;fill:rgb(0,0,0);"/>
</svg>